<svg width="64" height="62" viewBox="0 0 64 62" fill="#d2de26" xmlns="http://www.w3.org/2000/svg">
<path d="M63.7014 3.54404C63.7438 3.34729 63.7861 3.15055 63.7861 2.9538C63.7861 2.90461 63.7861 2.90461 63.7861 2.85543C63.7861 2.60949 63.7861 2.41275 63.7014 2.16682C63.7014 2.11763 63.6591 2.06844 63.6591 2.01925C63.6168 1.77332 63.5321 1.57657 63.4052 1.37983C63.2782 1.18308 63.1512 1.03552 62.9819 0.887961C62.9396 0.838775 62.8973 0.838774 62.8973 0.789588C62.728 0.642028 62.5587 0.543656 62.3894 0.445283C62.347 0.445283 62.347 0.445281 62.3047 0.396095C62.1354 0.346908 61.9661 0.297722 61.7545 0.248535C61.7122 0.248535 61.7122 0.248535 61.6698 0.248535C61.4582 0.248535 61.2889 0.248536 61.0773 0.346909H61.035L1.9915 20.1199C1.10267 20.4151 0.467795 21.3496 0.42547 22.4317C0.383145 23.5138 0.975697 24.4976 1.8222 24.8419L22.4345 33.5479L21.6727 59.0266C21.6303 60.1087 22.2229 61.0924 23.0694 61.4367C23.3233 61.5351 23.5773 61.5843 23.7889 61.5843C24.4238 61.5843 25.0587 61.24 25.4819 60.6497L63.3628 4.33103C63.3628 4.33103 63.3628 4.28184 63.4052 4.28184C63.5321 4.08509 63.6168 3.88835 63.7014 3.6916C63.7014 3.64241 63.7014 3.59323 63.7014 3.54404ZM9.48304 22.776L49.2686 9.49563L24.3391 29.0227L9.48304 22.776ZM26.7517 33.2036L51.6811 13.6765L26.2014 51.5994L26.7517 33.2036Z" fill="#002A00"/>
</svg>
